{"title":"Fargo S03E08 Who Rule the Land of Denial 720p HDTV HEVC 2CH x265","magnet":"magnet:?xt=urn:btih:5ab72500c5aa0a518079fb3a515ecd78e6c1039b&dn=Fargo+S03E08+Who+Rule+the+Land+of+Denial+720p+HDTV+HEVC+2CH+x265&tr=udp%3A%2F%2Ftracker.leechers-paradise.org%3A6969&tr=udp%3A%2F%2Fzer0day.ch%3A1337&tr=udp%3A%2F%2Fopen.demonii.com%3A1337&tr=udp%3A%2F%2Ftracker.coppersurfer.tk%3A6969&tr=udp%3A%2F%2Fexodus.desync.com%3A6969","uploader":"nayhtut","categoryP":"video","categoryS":"hd___tv_shows","size":"358857307","seeders":"0","leechers":"0","description":"Source: Fargo S03E08 720p HDTV x264-AVS (1.32 GB)\r\n\r\n\r\nComplete name: Fargo.S03E08.Who.Rules.the.Land.of.Denial.720p.HDTV.HEVC.2CH.x265.mkv\r\nFormat                                   : Matroska\r\nFormat version                           : Version 4 / Version 2\r\nFile size                                : 342 MiB\r\nDuration                                 : 49mn 34s\r\nOverall bit rate                         : 965 Kbps\r\nWriting application                      : Lavf57.25.100\r\n\r\nVideo\r\n\r\nID                                       : 1\r\nFormat                                   : V_MPEGH/ISO/HEVC\r\nDuration                                 : 49mn 34s\r\nBit rate                                 : 722 Kbps\r\nWidth                                    : 1 280 pixels\r\nHeight                                   : 640 pixels\r\nDisplay aspect ratio                     : 2.000\r\nFrame rate                               : 25.000 fps\r\nBits/(Pixel*Frame)                       : 0.035\r\nStream size                              : 256 MiB (75%)\r\nDefault                                  : Yes\r\nForced                                   : No\r\nDURATION                                 : 00:49:34.411000000\r\n\r\nAudio\r\n\r\nID                                       : 2\r\nFormat                                   : AC-3\r\nFormat/Info                              : Audio Coding 3\r\nMode extension                           : CM (complete main)\r\nFormat settings, Endianness              : Big\r\nCodec ID                                 : A_AC3\r\nDuration                                 : 49mn 34s\r\nBit rate mode                            : Constant\r\nBit rate                                 : 224 Kbps\r\nChannel(s)                               : 2 channels\r\nChannel positions                        : Front: L R\r\nSampling rate                            : 48.0 KHz\r\nBit depth                                : 32 bits\r\nCompression mode                         : Lossy\r\nStream size                              : 79.4 MiB (23%)\r\nWriting library                          : Lavc57.24.102 ac3\r\nDefault                                  : Yes\r\nForced                                   : No\r\nDURATION                                 : 00:49:34.399000000","last_updated":"2017-06-08T12:04:45.749Z","parsed":{"xt":"urn:btih:5ab72500c5aa0a518079fb3a515ecd78e6c1039b","dn":"Fargo S03E08 Who Rule the Land of Denial 720p HDTV HEVC 2CH x265","tr":["udp://exodus.desync.com:6969","udp://open.demonii.com:1337","udp://tracker.coppersurfer.tk:6969","udp://tracker.leechers-paradise.org:6969","udp://zer0day.ch:1337"],"infoHash":"5ab72500c5aa0a518079fb3a515ecd78e6c1039b","infoHashBuffer":{"type":"Buffer","data":[90,183,37,0,197,170,10,81,128,121,251,58,81,94,205,120,230,193,3,155]},"name":"Fargo S03E08 Who Rule the Land of Denial 720p HDTV HEVC 2CH x265","announce":["udp://exodus.desync.com:6969","udp://open.demonii.com:1337","udp://tracker.coppersurfer.tk:6969","udp://tracker.leechers-paradise.org:6969","udp://zer0day.ch:1337"],"urlList":[]}}